# xmcd CD database file
#
# Track frame offsets:
#	150
#	17517
#	35005
#	55575
#	74425
#	98350
#	116837
#	135980
#	154532
#	171790
#
# Disc length: 2525 seconds
#
# Revision: 5
# Processed by: cddbd v1.5.1PL0 Copyright (c) Steve Scherf et al.
# Submitted via: CDex 1.50
#
DISCID=7409db0a
DTITLE=Phobe Snow - Something Real
DYEAR=1989
DGENRE=Jazz
TTITLE0=Something Real
TTITLE1=Mr. Wondering
TTITLE2=Touch Your Soul
TTITLE3=We Might Never Feel This Way Again
TTITLE4=I'm Your Girl
TTITLE5=If We Can Just Get Through the Night
TTITLE6=Stay Away
TTITLE7=Soothin'
TTITLE8=Best of My Love
TTITLE9=Cardiac Arrest
EXTD=YEAR: 1989
EXTT0=
EXTT1=
EXTT2=
EXTT3=
EXTT4=
EXTT5=
EXTT6=
EXTT7=
EXTT8=
EXTT9=
PLAYORDER=
